# xmcd CD database file
#
# Track frame offsets:
#	187
#	16585
#	42510
#	69312
#	87870
#	113057
#	124305
#	162932
#	188630
#
# Disc length: 3319 seconds
#
# Revision: 2
# Processed by: cddbd v1.5.1PL0 Copyright (c) Steve Scherf et al.
# Submitted via: CDex 1.51
#
DISCID=6a0cf509
DTITLE=Buddy Rich - No Jive
DYEAR=1992
DGENRE=Jazz
TTITLE0=Ya Gotta Try
TTITLE1=Tales Of Rhoda Rat
TTITLE2=No Jive
TTITLE3=Lush Life
TTITLE4=Party Time
TTITLE5=Storm At Sunup
TTITLE6=Love Me Now
TTITLE7=Yearnin' Learnin'
TTITLE8=A Piece Of The Road Suite
EXTD=YEAR: 1992
EXTT0=
EXTT1=
EXTT2=
EXTT3=
EXTT4=
EXTT5=
EXTT6=
EXTT7=
EXTT8=
PLAYORDER=
